<svg xmlns="http://www.w3.org/2000/svg" width="256" height="256" viewBox="0 0 100 100"><rect width="100" height="100" rx="50" fill="#9b9b9b"></rect><path d="M19.38 59.88L19.38 59.88Q17.98 59.88 16.74 59.56Q15.50 59.24 14.70 58.80L14.70 58.80L14.70 66.56Q14.50 66.64 14.10 66.74Q13.70 66.84 13.22 66.84L13.22 66.84Q11.50 66.84 11.50 65.36L11.50 65.36L11.50 44.24Q11.50 43.44 11.78 42.96Q12.06 42.48 12.94 41.96L12.94 41.96Q14.02 41.36 15.52 40.86Q17.02 40.36 18.94 40.36L18.94 40.36Q20.90 40.36 22.64 40.92Q24.38 41.48 25.64 42.66Q26.90 43.84 27.64 45.68Q28.38 47.52 28.38 50.08L28.38 50.08Q28.38 52.56 27.72 54.40Q27.06 56.24 25.86 57.46Q24.66 58.68 23 59.28Q21.34 59.88 19.38 59.88ZM18.94 57.24L18.94 57.24Q21.74 57.24 23.44 55.54Q25.14 53.84 25.14 50.08L25.14 50.08Q25.14 48.12 24.64 46.76Q24.14 45.40 23.28 44.56Q22.42 43.72 21.30 43.36Q20.18 43 18.94 43L18.94 43Q17.50 43 16.50 43.36Q15.50 43.72 14.70 44.16L14.70 44.16L14.70 55.96Q15.46 56.52 16.50 56.88Q17.54 57.24 18.94 57.24ZM36.62 59.28L36.62 59.28Q36.42 59.36 36.02 59.46Q35.62 59.56 35.14 59.56L35.14 59.56Q33.42 59.56 33.42 58.12L33.42 58.12L33.42 33.44Q33.62 33.36 34.04 33.26Q34.46 33.16 34.94 33.16L34.94 33.16Q36.62 33.16 36.62 34.60L36.62 34.60L36.62 41.80Q37.58 41.24 38.88 40.80Q40.18 40.36 41.82 40.36L41.82 40.36Q43.50 40.36 44.88 40.80Q46.26 41.24 47.26 42.14Q48.26 43.04 48.82 44.42Q49.38 45.80 49.38 47.64L49.38 47.64L49.38 59.28Q49.18 59.36 48.76 59.46Q48.34 59.56 47.90 59.56L47.90 59.56Q46.18 59.56 46.18 58.12L46.18 58.12L46.18 47.72Q46.18 45.32 44.86 44.16Q43.54 43 41.38 43L41.38 43Q39.98 43 38.76 43.50Q37.54 44 36.62 44.72L36.62 44.72L36.62 59.28ZM68.42 54.44L68.42 54.44Q68.42 57 66.54 58.44Q64.66 59.88 61.10 59.88L61.10 59.88Q59.58 59.88 58.30 59.62Q57.02 59.36 56.12 58.94Q55.22 58.52 54.72 57.98Q54.22 57.44 54.22 56.88L54.22 56.88Q54.22 56.40 54.48 55.96Q54.74 55.52 55.26 55.20L55.26 55.20Q56.34 56 57.78 56.62Q59.22 57.24 61.06 57.24L61.06 57.24Q65.22 57.24 65.22 54.44L65.22 54.44Q65.22 52.16 62.46 51.48L62.46 51.48L59.14 50.60Q56.70 49.96 55.58 48.74Q54.46 47.52 54.46 45.60L54.46 45.60Q54.46 44.56 54.88 43.60Q55.30 42.64 56.18 41.92Q57.06 41.20 58.36 40.78Q59.66 40.36 61.42 40.36L61.42 40.36Q64.22 40.36 65.94 41.18Q67.66 42 67.66 43.08L67.66 43.08Q67.66 43.60 67.40 44Q67.14 44.40 66.70 44.60L66.70 44.60Q65.98 44.12 64.66 43.56Q63.34 43 61.54 43L61.54 43Q59.74 43 58.68 43.68Q57.62 44.36 57.62 45.60L57.62 45.60Q57.62 46.52 58.22 47.16Q58.82 47.80 60.22 48.12L60.22 48.12L62.98 48.80Q65.70 49.48 67.06 50.82Q68.42 52.16 68.42 54.44ZM76.54 59.28L76.54 59.28Q76.34 59.36 75.94 59.46Q75.54 59.56 75.06 59.56L75.06 59.56Q73.34 59.56 73.34 58.12L73.34 58.12L73.34 33.44Q73.54 33.36 73.96 33.26Q74.38 33.16 74.86 33.16L74.86 33.16Q76.54 33.16 76.54 34.60L76.54 34.60L76.54 49L85.30 40.52Q86.26 40.56 86.80 40.98Q87.34 41.40 87.34 42.08L87.34 42.08Q87.34 42.64 86.98 43.06Q86.62 43.48 86.02 44.04L86.02 44.04L79.58 49.68L88.50 57.68Q88.42 58.56 87.96 59.08Q87.50 59.60 86.74 59.60L86.74 59.60Q86.14 59.60 85.64 59.30Q85.14 59 84.62 58.44L84.62 58.44L76.54 50.32L76.54 59.28Z" fill="#fff"></path></svg>